<?xml version="1.0" encoding="UTF-8" standalone="no"?>
<!-- Created with Inkscape (http://www.inkscape.org/) -->

<svg
   xmlns:dc="http://purl.org/dc/elements/1.1/"
   xmlns:cc="http://creativecommons.org/ns#"
   xmlns:rdf="http://www.w3.org/1999/02/22-rdf-syntax-ns#"
   xmlns:svg="http://www.w3.org/2000/svg"
   xmlns="http://www.w3.org/2000/svg"
   xmlns:xlink="http://www.w3.org/1999/xlink"
   xmlns:sodipodi="http://sodipodi.sourceforge.net/DTD/sodipodi-0.dtd"
   xmlns:inkscape="http://www.inkscape.org/namespaces/inkscape"
   width="210mm"
   height="297mm"
   viewBox="0 0 210 297"
   version="1.1"
   id="svg3565"
   inkscape:version="0.92.4 (unknown)"
   sodipodi:docname="l17f7.svg">
  <defs
     id="defs3559">
    <linearGradient
       inkscape:collect="always"
       id="linearGradient882">
      <stop
         style="stop-color:#ff0000;stop-opacity:1;"
         offset="0"
         id="stop878" />
      <stop
         style="stop-color:#ff0000;stop-opacity:0;"
         offset="1"
         id="stop880" />
    </linearGradient>
    <marker
       inkscape:stockid="Arrow1Mend"
       orient="auto"
       refY="0.0"
       refX="0.0"
       id="Arrow1Mend"
       style="overflow:visible;"
       inkscape:isstock="true">
      <path
         id="path1017"
         d="M 0.0,0.0 L 5.0,-5.0 L -12.5,0.0 L 5.0,5.0 L 0.0,0.0 z "
         style="fill-rule:evenodd;stroke:#ff0000;stroke-width:1pt;stroke-opacity:1;fill:#ff0000;fill-opacity:1"
         transform="scale(0.4) rotate(180) translate(10,0)" />
    </marker>
    <linearGradient
       inkscape:collect="always"
       id="linearGradient998">
      <stop
         style="stop-color:#ff0000;stop-opacity:1;"
         offset="0"
         id="stop994" />
      <stop
         style="stop-color:#ff0000;stop-opacity:0;"
         offset="1"
         id="stop996" />
    </linearGradient>
    <linearGradient
       inkscape:collect="always"
       xlink:href="#linearGradient998"
       id="linearGradient1000"
       x1="230.92188"
       y1="505.56347"
       x2="547.27344"
       y2="505.56347"
       gradientUnits="userSpaceOnUse"
       gradientTransform="matrix(0.26458333,0,0,0.26458333,-4.316601e-6,1.083399e-6)" />
    <linearGradient
       inkscape:collect="always"
       xlink:href="#linearGradient882"
       id="linearGradient884"
       x1="230.49404"
       y1="501.84823"
       x2="547.85935"
       y2="501.84823"
       gradientUnits="userSpaceOnUse" />
  </defs>
  <sodipodi:namedview
     id="base"
     pagecolor="#ffffff"
     bordercolor="#666666"
     borderopacity="1.0"
     inkscape:pageopacity="0.0"
     inkscape:pageshadow="2"
     inkscape:zoom="2.0308861"
     inkscape:cx="415.1509"
     inkscape:cy="590.14291"
     inkscape:document-units="mm"
     inkscape:current-layer="layer1"
     showgrid="true"
     inkscape:window-width="960"
     inkscape:window-height="1011"
     inkscape:window-x="0"
     inkscape:window-y="32"
     inkscape:window-maximized="0">
    <inkscape:grid
       type="xygrid"
       id="grid4129" />
  </sodipodi:namedview>
  <metadata
     id="metadata3562">
    <rdf:RDF>
      <cc:Work
         rdf:about="">
        <dc:format>image/svg+xml</dc:format>
        <dc:type
           rdf:resource="http://purl.org/dc/dcmitype/StillImage" />
        <dc:title></dc:title>
      </cc:Work>
    </rdf:RDF>
  </metadata>
  <g
     inkscape:label="Layer 1"
     inkscape:groupmode="layer"
     id="layer1">
    <rect
       style="opacity:1;vector-effect:none;fill:none;fill-opacity:1;fill-rule:evenodd;stroke:#000000;stroke-width:0.44999999;stroke-linecap:round;stroke-linejoin:round;stroke-miterlimit:4;stroke-dasharray:none;stroke-dashoffset:0;stroke-opacity:1;paint-order:stroke fill markers"
       id="rect4131"
       width="84.666664"
       height="84.666664"
       x="60.854168"
       y="90.624992" />
    <path
       style="fill:none;fill-rule:evenodd;stroke:#ff0000;stroke-width:0.44999999;stroke-linecap:butt;stroke-linejoin:miter;stroke-miterlimit:4;stroke-dasharray:none;stroke-opacity:1"
       d="M 145.52083,90.625003 60.854163,175.29167"
       id="path125"
       inkscape:connector-curvature="0" />
    <path
       style="opacity:1;vector-effect:none;fill:none;fill-opacity:1;fill-rule:evenodd;stroke:none;stroke-width:1.70078743;stroke-linecap:round;stroke-linejoin:round;stroke-miterlimit:4;stroke-dasharray:none;stroke-dashoffset:0;stroke-opacity:1;paint-order:stroke fill markers"
       d="m 231.01415,657.00683 v -4.27681 h 2.70114 c 2.40102,0 2.70114,-0.10004 2.70114,-0.90038 0,-0.79389 -0.30012,-0.90038 -2.53765,-0.90038 h -2.53765 l 2.02631,-2.16629 c 2.6229,-2.80409 3.17566,-3.88537 2.81822,-5.51279 -0.36308,-1.65311 -1.77528,-2.6753 -3.69602,-2.6753 h -1.47549 V 498.76486 356.95483 h 2.47605 c 2.17592,0 2.47604,-0.10913 2.47604,-0.90038 0,-0.79325 -0.30012,-0.90038 -2.52239,-0.90038 h -2.52239 l 2.40984,-2.65532 2.40985,-2.65532 3.08799,3.04605 c 2.5006,2.46663 3.03005,3.22864 2.78336,4.0059 -0.17249,0.54346 -0.68206,0.95983 -1.17469,0.95983 -0.47852,0 -0.87004,0.30388 -0.87004,0.67529 0,0.43822 0.43462,0.67287 1.23802,0.66839 1.38499,-0.008 2.14072,-0.39405 2.40861,-1.23132 0.0991,-0.3096 68.55266,67.80985 152.11911,151.37657 l 151.939,151.9395 H 389.14333 231.01415 Z m 12.22437,-2.57264 c 0.20195,-0.31828 0.37338,-1.49033 0.38096,-2.60455 0.0159,-2.34247 0.3278,-2.98126 1.5705,-3.21697 1.38071,-0.26188 1.45402,-1.73512 0.0864,-1.73512 -1.30519,0 -1.65685,-0.71762 -1.65685,-3.3811 0,-2.30952 -0.8611,-3.37176 -2.7333,-3.37176 -1.6539,0 -1.79871,1.21287 -0.19294,1.61589 1.01971,0.25593 1.12548,0.50212 1.12548,2.61969 0,1.28546 0.2431,2.5803 0.54023,2.87743 0.42018,0.42017 0.42018,0.66028 0,1.08046 -0.29713,0.29712 -0.54023,1.61393 -0.54023,2.92623 0,2.24496 -0.0665,2.38601 -1.12548,2.38601 -0.84838,0 -1.12547,0.23618 -1.12547,0.95929 0,0.85332 0.18245,0.92968 1.65179,0.69123 0.90848,-0.14742 1.81701,-0.52845 2.01896,-0.84673 z m 10.28516,-0.53465 c 0,-0.79663 0.35536,-1.20532 1.34936,-1.55183 0.74214,-0.25871 1.58501,-0.98758 1.87302,-1.6197 0.71608,-1.57162 -0.11229,-3.30455 -1.87302,-3.91834 -1.09827,-0.38286 -1.34936,-0.724 -1.34936,-1.8332 0,-1.27413 0.0879,-1.34523 1.35057,-1.09269 1.12063,0.22413 1.35057,0.12483 1.35057,-0.58324 0,-0.58213 -0.42926,-0.94764 -1.35057,-1.14999 -0.92885,-0.20401 -1.35057,-0.56662 -1.35057,-1.16125 0,-0.47553 -0.30388,-0.86461 -0.67529,-0.86461 -0.37791,0 -0.67529,0.40141 -0.67529,0.91152 0,0.55925 -0.4371,1.07771 -1.13101,1.34153 -2.4868,0.94549 -2.49364,4.58807 -0.01,5.21148 0.94931,0.23826 1.14078,0.55099 1.14078,1.86328 0,1.56556 -0.0117,1.57478 -1.61399,1.27418 -1.38988,-0.26075 -1.59261,-0.19178 -1.46002,0.49667 0.0866,0.44972 0.79267,0.98264 1.61399,1.21819 1.1148,0.31972 1.46002,0.66945 1.46002,1.47908 0,0.64241 0.26617,1.06036 0.67529,1.06036 0.41284,0 0.67529,-0.42029 0.67529,-1.08144 z"
       id="path951"
       inkscape:connector-curvature="0"
       transform="scale(0.26458333)" />
    <text
       xml:space="preserve"
       style="font-style:normal;font-weight:normal;font-size:4.23333311px;line-height:6.61458302px;font-family:sans-serif;text-align:center;letter-spacing:0px;word-spacing:0px;text-anchor:middle;fill:#ff0000;fill-opacity:1;stroke:none;stroke-width:0.26458332px;stroke-linecap:butt;stroke-linejoin:miter;stroke-opacity:1"
       x="124.45267"
       y="155.27322"
       id="text1717"><tspan
         sodipodi:role="line"
         x="124.45267"
         y="155.27322"
         style="fill:#ff0000;stroke-width:0.26458332px"
         id="tspan1719">particle</tspan></text>
    <path
       style="fill:none;fill-rule:evenodd;stroke:#ff0000;stroke-width:0.26458332px;stroke-linecap:butt;stroke-linejoin:miter;stroke-opacity:1;marker-end:url(#Arrow1Mend)"
       d="m 108.00853,159.38294 c -9.491221,-1.89825 -13.287699,-9.49123 -13.287699,-9.49123"
       id="path2346"
       inkscape:connector-curvature="0" />
    <text
       xml:space="preserve"
       style="font-style:normal;font-weight:normal;font-size:4.23333311px;line-height:6.61458349px;font-family:sans-serif;text-align:center;letter-spacing:0px;word-spacing:0px;text-anchor:middle;fill:#ff0000;fill-opacity:1;stroke:none;stroke-width:0.26458332px;stroke-linecap:butt;stroke-linejoin:miter;stroke-opacity:1"
       x="124.57047"
       y="166.26785"
       id="text1717-3"><tspan
         sodipodi:role="line"
         x="124.57047"
         y="166.26785"
         style="fill:#ff0000;stroke-width:0.26458332px"
         id="tspan1719-6">horizon</tspan></text>
    <path
       style="opacity:1;vector-effect:none;fill:url(#linearGradient884);fill-opacity:1;fill-rule:evenodd;stroke:#d45500;stroke-width:1.00157475;stroke-linecap:round;stroke-linejoin:round;stroke-miterlimit:4;stroke-dasharray:none;stroke-dashoffset:0;stroke-opacity:1;paint-order:stroke fill markers"
       d="M 230.99483,501.84823 V 343.78914 h 158.1819 158.1819 L 389.30011,501.84823 c -86.93218,86.9325 -158.11403,158.05909 -158.1819,158.05909 -0.0679,0 -0.12338,-71.12659 -0.12338,-158.05909 z"
       id="path62"
       inkscape:connector-curvature="0"
       transform="scale(0.26458333)" />
  </g>
</svg>
