<?xml version="1.0" encoding="UTF-8" standalone="no"?>
<!-- Created with Inkscape (http://www.inkscape.org/) -->

<svg
   xmlns:dc="http://purl.org/dc/elements/1.1/"
   xmlns:cc="http://creativecommons.org/ns#"
   xmlns:rdf="http://www.w3.org/1999/02/22-rdf-syntax-ns#"
   xmlns:svg="http://www.w3.org/2000/svg"
   xmlns="http://www.w3.org/2000/svg"
   xmlns:sodipodi="http://sodipodi.sourceforge.net/DTD/sodipodi-0.dtd"
   xmlns:inkscape="http://www.inkscape.org/namespaces/inkscape"
   width="210mm"
   height="297mm"
   viewBox="0 0 210 297"
   version="1.1"
   id="svg8"
   inkscape:version="0.92.4 (unknown)"
   sodipodi:docname="mfdwboundary.svg">
  <defs
     id="defs2" />
  <sodipodi:namedview
     id="base"
     pagecolor="#ffffff"
     bordercolor="#666666"
     borderopacity="1.0"
     inkscape:pageopacity="0.0"
     inkscape:pageshadow="2"
     inkscape:zoom="1.5749196"
     inkscape:cx="553.37728"
     inkscape:cy="650.99523"
     inkscape:document-units="mm"
     inkscape:current-layer="layer1"
     showgrid="true"
     inkscape:window-width="1920"
     inkscape:window-height="1011"
     inkscape:window-x="0"
     inkscape:window-y="32"
     inkscape:window-maximized="1">
    <inkscape:grid
       type="xygrid"
       id="grid815" />
  </sodipodi:namedview>
  <metadata
     id="metadata5">
    <rdf:RDF>
      <cc:Work
         rdf:about="">
        <dc:format>image/svg+xml</dc:format>
        <dc:type
           rdf:resource="http://purl.org/dc/dcmitype/StillImage" />
        <dc:title></dc:title>
      </cc:Work>
    </rdf:RDF>
  </metadata>
  <g
     inkscape:label="Layer 1"
     inkscape:groupmode="layer"
     id="layer1">
    <path
       style="fill:none;fill-rule:evenodd;stroke:#000000;stroke-width:0.26458332px;stroke-linecap:butt;stroke-linejoin:miter;stroke-opacity:1"
       d="M 71.437499,172.64583 C 65.220758,156.68988 87.227452,138.68854 82.020832,122.375 77.276693,107.51052 47.417565,106.22681 47.624999,90.625 47.749636,81.25063 60.267672,76.00748 68.791666,72.104167 81.525229,66.273205 94.834961,57.88364 110.20128,70.003922 c 10.50819,8.288406 30.28371,3.824994 40.61122,-3.191422 4.10726,-2.790437 -9.1491,16.496523 -7.9375,26.458333 1.29977,10.686757 20.29586,15.840177 18.52083,26.458337 -1.97787,11.83156 -20.10348,13.23663 -29.10417,21.16666 -15.44857,13.6109 -21.84236,42.97037 -42.333328,44.97917 -7.550578,0.74021 -15.766553,-6.16001 -18.520833,-13.22917 z"
       id="path817"
       inkscape:connector-curvature="0"
       sodipodi:nodetypes="aaassssaaaa" />
    <path
       style="opacity:1;vector-effect:none;fill:none;fill-opacity:1;fill-rule:evenodd;stroke:#000000;stroke-width:0.5;stroke-linecap:round;stroke-linejoin:round;stroke-miterlimit:4;stroke-dasharray:none;stroke-dashoffset:0;stroke-opacity:1;paint-order:stroke fill markers"
       id="path819"
       sodipodi:type="arc"
       sodipodi:cx="112.94682"
       sodipodi:cy="152.17461"
       sodipodi:rx="10.583333"
       sodipodi:ry="8.0886898"
       sodipodi:start="6.0721217"
       sodipodi:end="3.3549315"
       sodipodi:open="true"
       d="m 123.2953,150.48003 a 10.583333,8.0886898 0 0 1 -4.43226,8.40139 10.583333,8.0886898 0 0 1 -11.85239,-0.0103 10.583333,8.0886898 0 0 1 -4.40723,-8.40908"
       transform="rotate(7.9768611)" />
    <path
       style="opacity:1;vector-effect:none;fill:none;fill-opacity:1;fill-rule:evenodd;stroke:#000000;stroke-width:0.5;stroke-linecap:round;stroke-linejoin:round;stroke-miterlimit:4;stroke-dasharray:none;stroke-dashoffset:0;stroke-opacity:1;paint-order:stroke fill markers"
       id="path819-3"
       sodipodi:type="arc"
       sodipodi:cx="-112.98196"
       sodipodi:cy="-156.42812"
       sodipodi:rx="6.1266599"
       sodipodi:ry="4.6825185"
       sodipodi:start="5.7111272"
       sodipodi:end="3.6252549"
       sodipodi:open="true"
       d="m -107.83073,-158.96306 a 6.1266599,4.6825185 0 0 1 -1.00316,5.98097 6.1266599,4.6825185 0 0 1 -7.8819,0.26643 6.1266599,4.6825185 0 0 1 -1.69009,-5.88994"
       transform="rotate(-172.02314)" />
    <path
       style="opacity:1;vector-effect:none;fill:none;fill-opacity:1;fill-rule:evenodd;stroke:#000000;stroke-width:0.5;stroke-linecap:round;stroke-linejoin:round;stroke-miterlimit:4;stroke-dasharray:none;stroke-dashoffset:0;stroke-opacity:1;paint-order:stroke fill markers"
       id="path819-6"
       sodipodi:type="arc"
       sodipodi:cx="109.63468"
       sodipodi:cy="100.17526"
       sodipodi:rx="23.40691"
       sodipodi:ry="17.889566"
       sodipodi:start="6.0721217"
       sodipodi:end="3.3549315"
       sodipodi:open="true"
       d="m 132.52216,96.427398 a 23.40691,17.889566 0 0 1 -9.80271,18.581162 23.40691,17.889566 0 0 1 -26.213658,-0.0228 23.40691,17.889566 0 0 1 -9.747373,-18.598152" />
    <path
       style="opacity:1;vector-effect:none;fill:none;fill-opacity:1;fill-rule:evenodd;stroke:#000000;stroke-width:0.5;stroke-linecap:round;stroke-linejoin:round;stroke-miterlimit:4;stroke-dasharray:none;stroke-dashoffset:0;stroke-opacity:1;paint-order:stroke fill markers"
       id="path819-3-7"
       sodipodi:type="arc"
       sodipodi:cx="-109.71239"
       sodipodi:cy="-109.58265"
       sodipodi:rx="13.55019"
       sodipodi:ry="10.356216"
       sodipodi:start="5.7111272"
       sodipodi:end="3.6252549"
       sodipodi:open="true"
       d="m -98.319542,-115.18913 a 13.55019,10.356216 0 0 1 -2.218658,13.22798 13.55019,10.356216 0 0 1 -17.43222,0.58924 13.55019,10.356216 0 0 1 -3.73792,-13.02663"
       transform="scale(-1)" />
    <path
       style="fill:none;fill-rule:evenodd;stroke:#000000;stroke-width:0.26458332px;stroke-linecap:butt;stroke-linejoin:miter;stroke-opacity:1"
       d="m 150.8125,66.8125 c 0,0 10.08177,-4.408014 13.73315,-1.59625 6.2415,4.806295 -0.0581,16.295317 3.35996,23.392774 1.97662,4.104412 8.57191,5.467511 9.36522,9.953476 1.16965,6.61406 -3.72602,13.2885 -7.9375,18.52083 -2.37852,2.95507 -9.26041,6.61459 -9.26041,6.61459"
       id="path854"
       inkscape:connector-curvature="0"
       sodipodi:nodetypes="caaaac" />
    <path
       style="opacity:1;vector-effect:none;fill:none;fill-opacity:1;fill-rule:evenodd;stroke:#800000;stroke-width:3.77952761;stroke-linecap:round;stroke-linejoin:round;stroke-miterlimit:4;stroke-dasharray:none;stroke-dashoffset:0;stroke-opacity:1;paint-order:stroke fill markers"
       d="m 607.24731,464.17399 c 1.91276,-4.66825 3.03247,-8.64269 3.63477,-12.90166 1.66049,-11.74167 -3.72278,-23.53065 -16.56322,-36.27226 -2.64701,-2.62664 -10.81306,-9.89943 -18.14676,-16.16176 -19.37304,-16.54282 -26.4946,-24.18068 -31.13165,-33.38863 -3.35278,-6.65775 -4.34262,-10.85925 -4.32922,-18.37602 0.0293,-16.44157 5.71851,-33.64129 24.03668,-72.6682 3.74358,-7.97572 7.43709,-16.37062 8.20778,-18.65535 l 1.40127,-4.15404 7.19567,-2.40899 c 10.96785,-3.67185 18.32521,-5.11957 26.36712,-5.18828 6.01852,-0.0514 7.44349,0.14472 10.30341,1.41823 5.71497,2.54483 10.40079,8.88108 12.6004,17.03847 1.33814,4.96258 1.31798,17.69795 -0.052,32.86949 -1.25167,13.86111 -1.01751,27.12308 0.58106,32.90836 2.68274,9.70887 6.89406,14.80036 19.76286,23.89325 14.12183,9.97826 17.93296,15.14462 18.55759,25.15664 0.99556,15.95759 -6.21501,33.04673 -23.75588,56.3018 -9.01852,11.95642 -15.51222,17.70293 -30.28616,26.80135 -8.30525,5.11473 -9.06881,5.45969 -8.38369,3.7876 z"
       id="path856"
       inkscape:connector-curvature="0"
       transform="scale(0.26458333)" />
    <text
       xml:space="preserve"
       style="font-style:normal;font-weight:normal;font-size:4.23333311px;line-height:6.61458302px;font-family:sans-serif;text-align:center;letter-spacing:0px;word-spacing:0px;text-anchor:middle;fill:#000000;fill-opacity:1;stroke:none;stroke-width:0.26458332px;stroke-linecap:butt;stroke-linejoin:miter;stroke-opacity:1"
       x="76.729164"
       y="82.6875"
       id="text860"><tspan
         sodipodi:role="line"
         id="tspan858"
         x="76.729164"
         y="82.6875"
         style="stroke-width:0.26458332px">$\mathcal{M}$</tspan></text>
    <text
       xml:space="preserve"
       style="font-style:normal;font-weight:normal;font-size:4.23333311px;line-height:6.61458302px;font-family:sans-serif;text-align:center;letter-spacing:0px;word-spacing:0px;text-anchor:middle;fill:#000000;fill-opacity:1;stroke:none;stroke-width:0.26458332px;stroke-linecap:butt;stroke-linejoin:miter;stroke-opacity:1"
       x="177.27083"
       y="74.75"
       id="text864"><tspan
         sodipodi:role="line"
         id="tspan862"
         x="177.27083"
         y="74.75"
         style="stroke-width:0.26458332px">$\partial \mathcal{M}$</tspan></text>
  </g>
</svg>
